PathFileType	4	(X/Y/Z)	c:/Users/goper/Files/vsCode/490R/osim_files/A03/A03_SSWS_01.trc
DataRate	CameraRate	NumFrames	NumMarkers	Units                	OrigDataRate	OrigDataStartFrame	OrigNumFrames
250.00	250.00	4	36	mm	250.0	1465	2929
                Frame#	Time	LPSIS			LASIS			LTH1			LTH2			LTH3			LTH4			LLFE			LMFE			LSH1			LSH2			LSH3			LSH4			LLMAL			LMMAL			LCAL			LMTP5			LTOE			LMTP1			RPSIS			RASIS			RTH1			RTH2			RTH3			RTH4			RLFE			RMFE			RSH1			RSH2			RSH3			RSH4			RLMAL			RMMAL			RCAL			RMTP1			RTOE			RMTP5		
		X1	Y1	Z1	X2	Y2	Z2	X3	Y3	Z3	X4	Y4	Z4	X5	Y5	Z5	X6	Y6	Z6	X7	Y7	Z7	X8	Y8	Z8	X9	Y9	Z9	X10	Y10	Z10	X11	Y11	Z11	X12	Y12	Z12	X13	Y13	Z13	X14	Y14	Z14	X15	Y15	Z15	X16	Y16	Z16	X17	Y17	Z17	X18	Y18	Z18	X19	Y19	Z19	X20	Y20	Z20	X21	Y21	Z21	X22	Y22	Z22	X23	Y23	Z23	X24	Y24	Z24	X25	Y25	Z25	X26	Y26	Z26	X27	Y27	Z27	X28	Y28	Z28	X29	Y29	Z29	X30	Y30	Z30	X31	Y31	Z31	X32	Y32	Z32	X33	Y33	Z33	X34	Y34	Z34	X35	Y35	Z35	X36	Y36	Z36

1465	5.85600	286.56882	1025.65894	274.63007	79.08730	941.03436	435.05884	155.27831	591.24133	499.58948	153.04034	547.98151	505.10065	93.87921	588.21271	496.53232	100.53529	544.79272	499.61102	166.17310	486.15637	494.30502	118.64281	466.47049	347.91650	256.47345	464.29510	469.52267	292.90088	433.89734	458.64462	223.13176	411.48129	470.59268	262.58124	390.96088	453.17923	532.56812	237.41742	357.65833	501.90414	234.65071	262.90747	575.92798	285.17407	293.70462	491.77200	82.01456	371.07877	436.72192	80.16972	313.27551	461.81012	93.04723	261.92105	273.44714	1029.79468	193.81259	15.72731	961.28174	142.80728	-18.14587	604.81329	100.89622	-34.10904	565.21149	113.05183	-75.77906	623.42206	113.96277	-84.31165	580.78284	123.30332	-61.47411	536.74622	131.90703	-82.79240	555.87659	253.87036	-14.20695	466.57886	129.12827	-15.16438	424.79071	119.46381	-76.76416	460.36691	132.73758	-68.33492	413.79346	124.12130	-20.20363	120.71866	184.03604	-54.48694	114.38489	275.55276	34.04699	84.33225	246.94250	-176.91566	47.98461	286.69638	-205.47659	74.41560	237.54973	-171.71553	43.97704	168.23985
1466	5.86000	282.03333	1026.17151	274.82620	74.32247	941.82703	435.30057	146.14589	592.06085	500.89673	143.69507	548.82489	506.55438	84.74715	589.37341	498.05823	91.16445	545.94952	501.25223	156.25162	487.25558	495.78607	108.36153	466.16113	349.32867	247.26808	467.09933	470.46155	283.12711	436.28635	459.11938	213.97606	413.21359	472.02185	253.55910	392.98694	454.51190	525.52509	243.03122	358.26404	493.46906	238.82990	263.81436	567.62604	289.90454	293.68518	485.34644	86.67506	372.94492	429.30496	84.54896	315.42468	454.40686	96.85611	264.04904	269.09406	1030.57300	193.88518	11.53156	962.04517	142.44960	-20.81138	605.20581	100.73618	-36.66943	565.29688	112.63526	-78.52008	623.35956	113.47322	-86.86685	580.68512	122.80897	-63.83492	536.65405	131.54361	-85.48764	555.70526	253.36670	-16.33805	466.66837	128.74860	-16.97595	424.89127	119.12300	-79.29769	459.97159	132.54755	-70.04804	413.54941	123.84649	-20.22587	120.72749	183.85358	-54.60829	114.49898	275.54340	34.09817	84.34692	246.84003	-176.84709	48.06388	286.65186	-205.41827	74.47417	237.47006	-171.68021	43.92812	168.23557
1467	5.86400	277.55026	1026.70618	275.12357	69.32193	942.86377	435.26871	137.24123	592.98419	502.26373	134.40251	549.84827	507.94556	75.71253	590.69232	499.40680	81.89631	547.24597	502.74432	146.51546	488.71021	497.23981	97.72142	466.24359	351.12277	237.86461	469.75095	471.32410	273.59409	438.93976	460.01321	204.75917	415.23715	473.43829	244.45151	395.30350	455.88113	517.60162	247.65176	358.85925	484.81140	242.79953	264.76865	558.93225	294.35117	293.66830	478.52103	91.23480	375.02615	421.87219	88.67854	318.16498	446.42346	100.55879	266.40570	264.83313	1031.40515	194.05371	7.32735	962.80731	142.08763	-23.41290	605.26685	100.39340	-39.06754	565.36499	112.15833	-81.15318	623.25372	112.94035	-89.37434	580.60712	122.30420	-66.08327	536.60602	131.14679	-87.48458	555.30859	252.61809	-18.30709	466.75201	128.32872	-18.68443	424.95779	118.77219	-80.78311	459.81943	131.88263	-71.76904	413.29547	123.46340	-20.20912	120.67126	183.74231	-54.51784	114.58405	275.22592	34.06154	84.39056	246.73698	-176.80161	48.19997	286.59167	-205.33865	74.48177	237.38968	-171.65083	43.89431	168.18779
1468	5.86800	273.12094	1027.27014	275.46866	64.29211	943.89557	435.22028	128.52658	594.27423	503.70120	125.15946	551.06958	509.25375	66.70095	592.17657	500.65469	72.64806	548.70001	504.12421	136.95329	490.48257	498.67032	87.18409	466.65839	352.83728	227.68539	471.91089	472.23602	264.00089	441.67752	460.85724	195.53520	417.51889	474.91882	235.26881	397.84326	457.26599	509.20636	251.92274	359.50089	475.72833	246.27917	265.71786	549.77655	298.50772	293.67172	471.46997	95.36836	377.23279	414.70917	91.54639	321.20349	438.31183	103.63616	268.91318	260.39450	1032.07214	194.22437	3.11028	963.56549	141.72241	-25.82906	605.37421	99.94675	-41.34942	565.40613	111.71510	-84.19031	622.93091	112.63581	-91.75797	580.44830	121.74371	-68.21169	536.49451	130.71606	-90.72427	555.12695	252.32481	-20.16329	466.82196	127.90015	-20.29495	425.02094	118.35452	-82.57557	459.54654	131.36971	-73.26155	413.04318	122.97018	-20.19612	120.63326	183.60623	-54.58002	114.71474	274.95477	34.08598	84.45213	246.61958	-176.76630	48.29975	286.53592	-205.29590	74.52966	237.27745	-171.67601	43.85658	168.13106
